<svg width="41" height="24" viewBox="0 0 41 24" fill="none" xmlns="http://www.w3.org/2000/svg">
    <path
        d="M26.6836 11.7603L20.4682 6.01931L14.2528 11.7603L8.03744 6.01931L3.29302 10.4207L0.351074 7.70333L8.03744 0.622803L14.2528 6.36377L20.4682 0.622803L26.6836 6.36377L32.899 0.622803L40.5853 7.70333L37.6434 10.4207L32.899 6.01931L26.6836 11.7603ZM32.899 17.5013L37.6434 21.9027L40.5853 19.1853L32.899 12.1047L26.6836 17.8457L20.4682 12.1047L14.2528 17.8457L8.03744 12.1047L0.351074 19.1853L3.29302 21.9027L8.03744 17.5013L14.2528 23.2422L20.4682 17.5013L26.6836 23.2422L32.899 17.5013Z"
        fill="#FF0A6B" />
</svg>
    