<svg width="49" height="39" viewBox="0 0 49 39" fill="none" xmlns="http://www.w3.org/2000/svg">
    <g filter="url(#filter0_d_26_184)">
        <path
            d="M24.3839 0.979498C13.0107 0.979498 3.70532 7.62162 3.70532 15.8222C3.70532 19.7556 7.11728 23.0024 11.4805 23.2436H11.9767C16.5449 23.2436 20.2482 19.9209 20.2482 15.8222C20.2482 11.7235 16.5449 8.40086 11.9767 8.40086H11.4805C14.9544 5.45087 19.6071 3.85528 24.3839 3.94804C28.044 3.91094 31.6213 4.82006 34.7231 6.54552L37.3079 4.22635C33.4411 2.0556 28.9538 0.923838 24.3839 0.979498ZM11.9767 12.1115C14.2608 12.1115 16.1124 13.7729 16.1124 15.8222C16.1124 17.8817 14.21 19.5329 11.9767 19.5329C9.82617 19.5329 8.04781 18.0857 7.84103 16.1933C7.84103 15.9521 7.84103 15.6924 7.84103 15.4512C8.04781 13.5402 9.84685 12.1115 11.9767 12.1115ZM37.2873 8.40086H36.791C32.2228 8.40086 28.5196 11.7235 28.5196 15.8222C28.5196 19.9209 32.2228 23.2436 36.791 23.2436H37.2873C33.8133 26.1936 29.1606 27.7892 24.3839 27.6964C20.7238 27.7335 17.1464 26.8244 14.0446 25.0989L11.4805 27.3996C15.3473 29.5703 19.8139 30.665 24.3839 30.665C35.7571 30.665 45.0624 24.0228 45.0624 15.8222C45.0624 11.8889 41.6504 8.64206 37.2873 8.40086ZM36.791 19.5329C34.5069 19.5329 32.6553 17.8716 32.6553 15.8222C32.6553 13.7628 34.5577 12.1115 36.791 12.1115C38.9416 12.1115 40.7199 13.5587 40.9267 15.4512C40.9267 15.6924 40.9267 15.9521 40.9267 16.1933C40.7199 18.1043 38.9209 19.5329 36.791 19.5329Z"
            fill="#FF0A6B" />
    </g>
    <defs>
        <filter id="filter0_d_26_184" x="0.705322" y="0.977539" width="47.3572" height="37.6875"
            filterUnits="userSpaceOnUse" color-interpolation-filters="sRGB">
            <feFlood flood-opacity="0" result="BackgroundImageFix" />
            <feColorMatrix in="SourceAlpha" type="matrix"
                values="0 0 0 0 0 0 0 0 0 0 0 0 0 0 0 0 0 0 127 0" result="hardAlpha" />
            <feOffset dy="5" />
            <feGaussianBlur stdDeviation="1.5" />
            <feComposite in2="hardAlpha" operator="out" />
            <feColorMatrix type="matrix" values="0 0 0 0 0 0 0 0 0 0 0 0 0 0 0 0 0 0 0.0509804 0" />
            <feBlend mode="normal" in2="BackgroundImageFix" result="effect1_dropShadow_26_184" />
            <feBlend mode="normal" in="SourceGraphic" in2="effect1_dropShadow_26_184" result="shape" />
        </filter>
    </defs>
</svg>
    