<svg width="33" height="34" viewBox="0 0 33 34" fill="none" xmlns="http://www.w3.org/2000/svg">
    <path
        d="M22.5975 18.8333C20.8934 18.8333 19.2136 19.1817 17.7286 19.8417V6C17.7286 2.96243 14.4587 0.5 10.4251 0.5C8.59929 0.5 6.89516 1.03167 5.5562 1.93C4.21724 1.01333 2.48876 0.5 0.687256 0.5V4.16667C2.03178 4.16667 3.12173 4.98748 3.12173 6V24.3333H7.99067V6C7.99067 4.98748 9.08062 4.16667 10.4251 4.16667C11.7697 4.16667 12.8596 4.98748 12.8596 6V26.1667C12.8596 28.1917 10.6797 29.8333 7.99067 29.8333V33.5C10.7903 33.5 13.4682 32.5833 15.2941 30.97C18.8241 34.0317 24.9589 34.3617 29.0245 31.6667C33.0901 29.0633 33.5526 24.425 29.9983 21.3633C28.1481 19.75 25.4458 18.8333 22.5975 18.8333ZM22.5975 29.8333C19.9084 29.8333 17.7286 28.1917 17.7286 26.1667C17.7286 24.1416 19.9084 22.5 22.5975 22.5C25.2865 22.5 27.4664 24.1416 27.4664 26.1667C27.4664 28.1917 25.2865 29.8333 22.5975 29.8333Z"
        fill="#FF0A6B" />
</svg>
    