<svg width="41" height="37" viewBox="0 0 41 37" fill="none" xmlns="http://www.w3.org/2000/svg">
    <path
        d="M32.5136 23.185L29.3753 25.7682L32.2484 28.1148H28.7343C26.2931 28.1148 24.3142 26.4859 24.3142 24.4766V6.28547C24.3142 3.27146 21.3457 0.828124 17.6839 0.828125C16.0263 0.828125 14.4793 1.35567 13.2637 2.24703C10.7442 0.391538 6.94286 0.391538 4.42335 2.24703C3.2078 1.33748 1.63864 0.828125 0.00317383 0.828125V4.46635C1.22377 4.46635 2.21326 5.2808 2.21326 6.28547V24.4766H6.63344V6.28547C6.63344 5.2808 7.62294 4.46635 8.84354 4.46635C10.0641 4.46635 11.0536 5.2808 11.0536 6.28547V24.4766H15.4738V6.28547C15.4738 5.2808 16.4633 4.46635 17.6839 4.46635C18.9045 4.46635 19.894 5.2808 19.894 6.28547V24.4766C19.894 28.4953 23.8519 31.7531 28.7343 31.7531H32.2484L29.3753 34.0997L32.5136 36.6829L40.6909 29.934L32.5136 23.185Z"
        fill="#FF0A6B" />
</svg>
    