<svg width="40" height="46" viewBox="0 0 40 46" fill="none" xmlns="http://www.w3.org/2000/svg">
    <g filter="url(#filter0_d_26_176)">
        <path
            d="M33.173 27.9558C33.173 30.9677 30.9328 33.4094 28.1694 33.4094C25.4675 33.2639 23.2993 30.9007 23.1658 27.9558C23.4327 25.0291 23.9998 22.1387 24.8337 19.3392C25.7343 16.2306 26.2847 13.0312 26.5015 9.77726C26.3848 4.81452 22.7155 0.815238 18.1623 0.687988C13.609 0.815238 9.93976 4.81452 9.823 9.77726C10.0732 12.5586 10.6569 15.2854 11.4909 17.9576L11.8411 19.2301C8.32193 18.0121 4.58594 20.139 3.46848 23.9565C2.31766 27.7922 4.28573 31.8824 7.8049 33.1003C11.3241 34.3183 15.0601 32.1914 16.1775 28.3557C16.3943 27.6468 16.4944 26.8833 16.4944 26.1379C16.2276 22.9931 15.6605 19.8845 14.6765 16.9032C13.9426 14.5946 13.4256 12.2132 13.1587 9.77726C13.2921 6.83233 15.4604 4.46912 18.1623 4.3237C20.8642 4.46912 23.0324 6.83233 23.1658 9.77726C22.899 12.704 22.3319 15.5944 21.498 18.3939C20.5973 21.5024 20.0469 24.7018 19.8301 27.9558C19.9469 32.9185 23.6162 36.9178 28.1694 37.0451C32.775 37.0451 36.5087 32.9757 36.5087 27.9558H33.173ZM9.823 29.7736C7.98074 29.7736 6.4873 28.1459 6.4873 26.1379C6.4873 24.13 7.98074 22.5022 9.823 22.5022C11.6653 22.5022 13.1587 24.13 13.1587 26.1379C13.1587 28.1459 11.6653 29.7736 9.823 29.7736Z"
            fill="#FF0A6B" />
    </g>
    <defs>
        <filter id="filter0_d_26_176" x="0.139404" y="0.687988" width="39.3691" height="44.3572"
            filterUnits="userSpaceOnUse" color-interpolation-filters="sRGB">
            <feFlood flood-opacity="0" result="BackgroundImageFix" />
            <feColorMatrix in="SourceAlpha" type="matrix"
                values="0 0 0 0 0 0 0 0 0 0 0 0 0 0 0 0 0 0 127 0" result="hardAlpha" />
            <feOffset dy="5" />
            <feGaussianBlur stdDeviation="1.5" />
            <feComposite in2="hardAlpha" operator="out" />
            <feColorMatrix type="matrix" values="0 0 0 0 0 0 0 0 0 0 0 0 0 0 0 0 0 0 0.0509804 0" />
            <feBlend mode="normal" in2="BackgroundImageFix" result="effect1_dropShadow_26_176" />
            <feBlend mode="normal" in="SourceGraphic" in2="effect1_dropShadow_26_176" result="shape" />
        </filter>
    </defs>
</svg>
    