<svg width="27" height="34" viewBox="0 0 27 34" fill="none" xmlns="http://www.w3.org/2000/svg">
    <path
        d="M26.906 24.2332V27.8874H15.2831V24.0688C20.2643 23.0639 23.5187 17.8385 22.6055 12.3572C21.6923 6.87598 16.9435 3.2949 11.9623 4.2998C6.98101 5.32296 3.7266 10.5301 4.63983 16.0114C5.3206 20.104 8.24293 23.3197 11.9623 24.0688V27.8874H0.339355V24.2332H5.18776C2.61412 21.6571 1.16956 18.0029 1.16956 14.1843C1.16956 6.61629 6.74501 0.481199 13.6227 0.481201C20.5003 0.481201 26.0758 6.61629 26.0758 14.1843C26.0758 18.0029 24.6312 21.6571 22.0576 24.2332H26.906ZM26.906 29.7145H0.339355V33.3686H26.906V29.7145Z"
        fill="#FF0A6B" />
</svg>
    