<svg width="32" height="37" viewBox="0 0 32 37" fill="none" xmlns="http://www.w3.org/2000/svg">
    <path
        d="M31.0214 17.0823H27.1881C27.3989 11.975 28.5872 6.94029 30.6572 2.21461L27.1881 0.833252C24.9072 5.99516 23.6039 11.4842 23.3547 17.0823H8.02141C7.77224 11.4842 6.4689 5.99516 4.18807 0.833252L0.623069 2.21461C2.7314 6.92212 3.9389 11.9568 4.18807 17.0823H0.354736V20.7175H4.18807C3.97724 25.8249 2.7889 30.8595 0.718904 35.5852L4.18807 36.9666C6.4689 31.8047 7.77224 26.3156 8.02141 20.7175H23.3547C23.6039 26.3156 24.9072 31.8047 27.1881 36.9666L30.7531 35.5852C28.6447 30.8777 27.4372 25.843 27.1881 20.7175H31.0214V17.0823Z"
        fill="#FF0A6B" />
</svg>
    