<svg width="45" height="44" viewBox="0 0 45 44" fill="none" xmlns="http://www.w3.org/2000/svg">
    <g filter="url(#filter0_d_26_204)">
        <path
            d="M36.0001 30.3001C39.1686 27.8171 39.1686 23.0884 39.1686 20.9341C39.1686 16.9007 35.3858 13.6311 30.7194 13.6311C29.2408 13.6311 27.7622 13.9962 26.4948 14.6535V6.32807C26.4948 3.30308 23.6577 0.850829 20.1579 0.85083C18.5737 0.85083 17.0951 1.3803 15.9333 2.27491C13.5253 0.412651 9.89214 0.412651 7.48412 2.27491C6.32235 1.36204 4.82262 0.85083 3.25952 0.85083V4.50233C4.42611 4.50233 5.37182 5.31974 5.37182 6.32807V24.5856H9.59642V6.32807C9.59642 5.31974 10.5421 4.50233 11.7087 4.50233C12.8753 4.50233 13.821 5.31974 13.821 6.32807V24.5856H18.0456V6.32807C18.0456 5.31974 18.9913 4.50233 20.1579 4.50233C21.3245 4.50233 22.2702 5.31974 22.2702 6.32807V20.9341C22.2702 23.0884 22.2702 27.8171 25.4387 30.3001C23.7911 31.0487 22.0167 31.5964 20.1579 31.8886V35.54C22.8828 35.54 28.2691 33.2396 30.7194 32.1259C33.1697 33.2396 38.556 35.54 41.2809 35.54V31.8886C39.4221 31.5964 37.6477 31.0487 36.0001 30.3001ZM30.7194 17.2826C33.0526 17.2826 34.944 18.9174 34.944 20.9341C34.944 26.2652 33.8033 28.2371 30.7194 28.2371C27.6354 28.2371 26.4948 26.2652 26.4948 20.9341C26.4948 18.9174 28.3862 17.2826 30.7194 17.2826Z"
            fill="#FF0A6B" />
    </g>
    <defs>
        <filter id="filter0_d_26_204" x="0.259521" y="0.85083" width="44.0212" height="42.6892"
            filterUnits="userSpaceOnUse" color-interpolation-filters="sRGB">
            <feFlood flood-opacity="0" result="BackgroundImageFix" />
            <feColorMatrix in="SourceAlpha" type="matrix"
                values="0 0 0 0 0 0 0 0 0 0 0 0 0 0 0 0 0 0 127 0" result="hardAlpha" />
            <feOffset dy="5" />
            <feGaussianBlur stdDeviation="1.5" />
            <feComposite in2="hardAlpha" operator="out" />
            <feColorMatrix type="matrix" values="0 0 0 0 0 0 0 0 0 0 0 0 0 0 0 0 0 0 0.0509804 0" />
            <feBlend mode="normal" in2="BackgroundImageFix" result="effect1_dropShadow_26_204" />
            <feBlend mode="normal" in="SourceGraphic" in2="effect1_dropShadow_26_204" result="shape" />
        </filter>
    </defs>
</svg>
    