<svg width="22" height="22" viewBox="0 0 22 22" fill="none" xmlns="http://www.w3.org/2000/svg">
<path d="M11.1084 21.2514L11.104 21.2514C10.5518 21.2514 10.104 20.7678 10.104 20.1716V19.9846C10.0068 18.9817 9.13672 18.1942 8.08008 18.1942H1.00098C0.44873 18.1942 0 17.7106 0 17.1144V1.82709C0 1.23091 0.44873 0.748535 1.00098 0.748535H7.06885C8.71484 0.748535 10.1787 1.55795 11.1001 2.80758C12.0059 1.55795 13.4448 0.748535 15.0625 0.748535H21.001C21.5532 0.748535 22.0005 1.23091 22.0005 1.82709V17.1144C22.0005 17.7106 21.5532 18.1942 21.001 18.1942H14.0732C13.0552 18.1942 12.2153 18.9732 12.1138 19.9683V20.1716C12.1138 20.7678 11.665 21.2514 11.1128 21.2514L11.1084 21.2514ZM2.00098 16.0358H8.08008C8.81738 16.0358 9.50879 16.2394 10.104 16.5956V5.90336C10.104 5.84108 10.1055 5.7793 10.1074 5.71754C10.0098 4.15104 8.68408 2.90565 7.06885 2.90565H2.00098V16.0358ZM12.1138 5.90336V16.5755C12.6919 16.2314 13.3608 16.0358 14.0732 16.0358H20V2.90565H15.0625C13.4971 2.90565 12.2124 4.14333 12.1099 5.70296C12.1128 5.76949 12.1138 5.83622 12.1138 5.90336Z" fill="#FF0A6B"/>
</svg>
