<svg width="22" height="19" viewBox="0 0 22 19" fill="none" xmlns="http://www.w3.org/2000/svg">
<path d="M4.05566 19C1.81934 19 0 17.1719 0 14.9248V4.07422C0 1.82812 1.81934 0 4.05566 0H17.9441C20.1804 0 22 1.82812 22 4.07422V14.9248C22 17.1719 20.1804 19 17.9441 19H4.05566ZM1.93921 14.9248C1.93921 16.0977 2.88867 17.0498 4.05566 17.0498H17.9441C19.1111 17.0498 20.0588 16.0977 20.0588 14.9248V6.59375L11.5076 11.8813C11.3521 11.9756 11.1763 12.0254 10.999 12.0254C10.8232 12.0254 10.6477 11.9756 10.4922 11.8813L1.93921 6.59277V14.9248ZM10.999 9.90674L20.0588 4.30664V4.07422C20.0588 2.90137 19.1111 1.94727 17.9441 1.94727H4.05566C2.88867 1.94727 1.93921 2.90137 1.93921 4.07422V4.30566L10.999 9.90674Z" fill="#FF0A6B"/>
</svg>
