<svg width="40" height="40" viewBox="0 0 40 40" fill="none" xmlns="http://www.w3.org/2000/svg">
<g filter="url(#filter0_d_1_2766)">
<circle cx="20" cy="15" r="15" fill="#FF0A6B"/>
</g>
<path d="M25.811 22.3498L22.0654 18.6045C21.1051 19.2665 19.9417 19.6544 18.6894 19.6544C15.4005 19.6544 12.7244 16.9782 12.7244 13.6893C12.7244 10.4003 15.4005 7.72507 18.6894 7.72507C21.9783 7.72507 24.6539 10.4003 24.6539 13.6893C24.6539 14.9417 24.2657 16.1053 23.6036 17.0661L27.3492 20.8115C27.7748 21.236 27.7748 21.9252 27.3492 22.3498C27.1371 22.5621 26.8585 22.6687 26.5808 22.6687C26.3017 22.6687 26.0231 22.5621 25.811 22.3498ZM14.2879 13.6893C14.2879 16.117 16.2632 18.091 18.6894 18.091C21.1166 18.091 23.0913 16.117 23.0913 13.6893C23.0913 11.2625 21.1166 9.28755 18.6894 9.28755C16.2632 9.28755 14.2879 11.2625 14.2879 13.6893Z" fill="white"/>
<defs>
<filter id="filter0_d_1_2766" x="0" y="0" width="40" height="40" filterUnits="userSpaceOnUse" color-interpolation-filters="sRGB">
<feFlood flood-opacity="0" result="BackgroundImageFix"/>
<feColorMatrix in="SourceAlpha" type="matrix" values="0 0 0 0 0 0 0 0 0 0 0 0 0 0 0 0 0 0 127 0" result="hardAlpha"/>
<feOffset dy="5"/>
<feGaussianBlur stdDeviation="2.5"/>
<feComposite in2="hardAlpha" operator="out"/>
<feColorMatrix type="matrix" values="0 0 0 0 0 0 0 0 0 0 0 0 0 0 0 0 0 0 0.101961 0"/>
<feBlend mode="normal" in2="BackgroundImageFix" result="effect1_dropShadow_1_2766"/>
<feBlend mode="normal" in="SourceGraphic" in2="effect1_dropShadow_1_2766" result="shape"/>
</filter>
</defs>
</svg>
